<?xml version="1.0" encoding="UTF-8"?>
<svg version="1.1" xmlns="http://www.w3.org/2000/svg" width="2133" height="516">
<path d="M0 0 C4.57097413 0.0189783 9.1419566 0.02053366 13.71296406 0.02407622 C22.33614183 0.03333542 30.95920311 0.05786461 39.58232999 0.08812469 C49.41330365 0.12186151 59.24428339 0.13820278 69.07530069 0.153211 C89.26821991 0.18442095 109.46097979 0.23935462 129.65382099 0.30418181 C129.65382099 21.75418181 129.65382099 43.20418181 129.65382099 65.30418181 C124.72766865 65.31352752 119.8015163 65.32287322 114.72608662 65.33250213 C98.45714284 65.36625661 82.18832552 65.42159607 65.91948414 65.48808455 C56.05488536 65.52787206 46.19036633 65.56026603 36.32569599 65.57517791 C27.72635042 65.5881959 19.12718034 65.61516439 10.5279336 65.65879488 C5.97583491 65.68140634 1.42395263 65.69709268 -3.12820721 65.69606566 C-7.41616579 65.69531887 -11.70364603 65.71327746 -15.99148083 65.74534965 C-17.56195423 65.753842 -19.13248133 65.75560307 -20.70296764 65.7499845 C-30.03705191 65.72104864 -37.07934567 65.95088771 -44.55321026 72.12840056 C-49.93824339 78.37818355 -53.00282654 84.87749731 -52.63524151 93.26511931 C-51.55852612 100.86032787 -48.6023949 107.6992091 -42.53367901 112.55418181 C-36.93456085 115.62820747 -31.69321496 116.55314829 -25.35425091 116.58265471 C-24.35297622 116.59134332 -24.35297622 116.59134332 -23.33147377 116.60020745 C-21.11440146 116.61709356 -18.89753874 116.620074 -16.68040752 116.62302947 C-15.08333107 116.63233554 -13.48625945 116.64250522 -11.88919353 116.65347075 C-7.56744206 116.68070836 -3.24572308 116.69590162 1.07609153 116.70889878 C5.59781244 116.72455668 10.1194673 116.75133841 14.64114094 116.77692962 C23.19738061 116.82367037 31.75363278 116.86043723 40.30993468 116.89360249 C50.05360426 116.93185713 59.79720742 116.98125853 69.54082096 117.03158665 C89.57844464 117.13483657 109.61609637 117.22264816 129.65382099 117.30418181 C129.65382099 138.75418181 129.65382099 160.20418181 129.65382099 182.30418181 C124.72766865 182.31352752 119.8015163 182.32287322 114.72608662 182.33250213 C98.45714284 182.36625661 82.18832552 182.42159607 65.91948414 182.48808455 C56.05488536 182.52787206 46.19036633 182.56026603 36.32569599 182.57517791 C27.72635042 182.5881959 19.12718034 182.61516439 10.5279336 182.65879488 C5.97583491 182.68140634 1.42395263 182.69709268 -3.12820721 182.69606566 C-7.41616579 182.69531887 -11.70364603 182.71327746 -15.99148083 182.74534965 C-17.56195423 182.753842 -19.13248133 182.75560307 -20.70296764 182.7499845 C-30.03705191 182.72104864 -37.07934567 182.95088771 -44.55321026 189.12840056 C-50.1459059 195.61919332 -53.02113462 202.233958 -52.70164776 210.90574431 C-51.72306939 217.50845991 -49.33210104 224.72252373 -44.34617901 229.30418181 C-37.44207672 233.84635437 -31.94763867 235.41695811 -23.67068768 235.4624002 C-23.01304717 235.46733818 -22.35540667 235.47227615 -21.67783767 235.47736377 C-19.48224491 235.49267722 -17.28668125 235.5010826 -15.09105206 235.50950408 C-13.51397733 235.51908745 -11.93690515 235.5290978 -10.35983562 235.53950286 C-6.08342489 235.56650828 -1.80700316 235.58754144 2.46944547 235.60750484 C6.94044474 235.62939133 11.41141032 235.65676699 15.88238239 235.68356109 C24.34661361 235.73345198 32.81086357 235.77840417 41.2751314 235.82158345 C50.91232928 235.87098663 60.54949334 235.92589333 70.1866585 235.98126304 C90.00901599 236.09502777 109.8314046 236.20115229 129.65382099 236.30418181 C129.65382099 257.42418181 129.65382099 278.54418181 129.65382099 300.30418181 C108.09475095 300.39478371 86.53583716 300.46833837 64.97662449 300.5114305 C54.96433115 300.53197857 44.95216528 300.5599492 34.9399538 300.60593963 C26.20434403 300.64604663 17.46882666 300.67167084 8.73312736 300.68053579 C4.11574745 300.68571052 -0.50136833 300.69770728 -5.11866283 300.72710204 C-37.17446441 300.92310537 -68.59245769 299.58330561 -93.42430401 276.34324431 C-113.30517269 255.25012754 -119.24823733 229.46738438 -118.48240948 201.05564666 C-117.62756678 183.79027529 -111.54097952 167.72528952 -98.78367901 155.80418181 C-95.48610903 153.00350594 -92.66549783 151.19019593 -88.34617901 150.30418181 C-88.34617901 149.64418181 -88.34617901 148.98418181 -88.34617901 148.30418181 C-89.08094463 148.03605681 -89.81571026 147.76793181 -90.57274151 147.49168181 C-101.30587352 142.89608726 -107.7719975 133.60539589 -112.09617901 123.11668181 C-115.99797946 112.20704239 -117.83217884 100.85312301 -118.34617901 89.30418181 C-118.38742901 88.44953338 -118.42867901 87.59488494 -118.47117901 86.71433806 C-119.01682394 64.03597047 -113.09118232 42.20125854 -97.34617901 25.30418181 C-70.72298638 -0.37735448 -34.64415488 -0.16851955 0 0 Z " fill="#013AFB" transform="translate(1223.346179008484,107.69581818580627)"/>
<path d="M0 0 C1.61795545 0.00056582 3.23591142 0.00024424 4.85386658 -0.00088501 C9.19586141 -0.00145288 13.53774307 0.01020848 17.87971187 0.02426291 C22.43604233 0.03686586 26.99237611 0.03794823 31.54872131 0.04031372 C40.15432652 0.04650063 48.7598802 0.06287323 57.36546284 0.0830127 C67.17214647 0.10545911 76.97883272 0.116387 86.78553569 0.12640357 C106.93786939 0.1472423 127.09013255 0.18388317 147.24243164 0.22705078 C147.24243164 21.67705078 147.24243164 43.12705078 147.24243164 65.22705078 C139.89864258 65.24106934 139.89864258 65.24106934 132.40649414 65.25537109 C116.23733474 65.28912605 100.06830258 65.34446578 83.89924622 65.41095352 C74.09518158 65.45074048 64.29119718 65.48313473 54.48706055 65.49804688 C45.94045213 65.51106515 37.39402027 65.53803435 28.84751129 65.58166385 C24.32335796 65.60427468 19.79942236 65.61996169 15.27520752 65.61893463 C11.01351255 65.6181878 6.75229881 65.63614787 2.49072838 65.66821861 C0.92993045 65.6767105 -0.63092149 65.67847235 -2.19173241 65.67285347 C-11.4862935 65.64386005 -18.56545068 65.8528065 -25.96459961 72.08642578 C-31.67102994 78.806407 -34.40198354 84.70738652 -34.11303711 93.63720703 C-33.22768825 100.08760588 -30.52624077 106.72330462 -25.75756836 111.22705078 C-19.5651991 114.98853128 -14.41105601 116.3457623 -7.16436768 116.38526917 C-6.50349805 116.39020714 -5.84262842 116.39514512 -5.16173244 116.40023273 C-2.94921409 116.41558016 -0.7367247 116.42396085 1.47583008 116.43237305 C3.0626094 116.44195374 4.64938617 116.45196393 6.23616028 116.46237183 C10.54362101 116.48940624 14.85109268 116.51042374 19.15859127 116.53037381 C23.66029288 116.55224237 28.16196081 116.57962681 32.66363525 116.60643005 C41.18810695 116.65634515 49.71259735 116.70128838 58.23710561 116.74445242 C67.94199361 116.79383489 77.64684784 116.84874928 87.35170317 116.90413201 C107.31524936 117.01793391 127.27882661 117.12404658 147.24243164 117.22705078 C147.24243164 138.67705078 147.24243164 160.12705078 147.24243164 182.22705078 C139.89864258 182.24106934 139.89864258 182.24106934 132.40649414 182.25537109 C116.23733474 182.28912605 100.06830258 182.34446578 83.89924622 182.41095352 C74.09518158 182.45074048 64.29119718 182.48313473 54.48706055 182.49804688 C45.94045213 182.51106515 37.39402027 182.53803435 28.84751129 182.58166385 C24.32335796 182.60427468 19.79942236 182.61996169 15.27520752 182.61893463 C11.01351255 182.6181878 6.75229881 182.63614787 2.49072838 182.66821861 C0.92993045 182.6767105 -0.63092149 182.67847235 -2.19173241 182.67285347 C-11.4862935 182.64386005 -18.56545068 182.8528065 -25.96459961 189.08642578 C-31.94936223 196.13417543 -34.38524742 202.08162593 -34.11303711 211.41455078 C-33.08112833 219.57910378 -29.43026865 226.30558464 -23.00756836 231.41455078 C-14.60288247 236.10177945 -5.59707768 235.53317228 3.74633789 235.54589844 C5.31400565 235.55520739 6.88166849 235.56537749 8.44932556 235.57633972 C12.68630962 235.60354485 16.9232606 235.61876087 21.16030884 235.63176775 C25.59527359 235.64743997 30.03017122 235.67421708 34.46508789 235.69979858 C42.85483879 235.7465141 51.24460242 235.78329312 59.63441658 235.81647146 C69.18948002 235.854744 78.74447592 235.90414068 88.29948235 235.95445561 C107.94708837 236.05766797 127.59472297 236.14549476 147.24243164 236.22705078 C147.24243164 257.34705078 147.24243164 278.46705078 147.24243164 300.22705078 C125.81374538 300.31765539 104.38521635 300.39120888 82.95638657 300.43429947 C73.00462696 300.45484686 63.0529956 300.48281618 53.10131836 300.52880859 C44.41844629 300.5689177 35.7356672 300.59454029 27.05270505 300.60340476 C22.4632701 300.60857914 17.8741009 300.6205736 13.28475189 300.64997101 C-19.41326204 300.85113516 -50.48494157 299.12913201 -75.67553711 275.43408203 C-95.64909113 254.2613653 -100.59661686 228.25762392 -99.89379883 200.12744141 C-99.111552 183.47315408 -92.696277 167.32959459 -80.56225586 155.73486328 C-77.50871571 153.1836371 -73.85983966 150.22705078 -69.75756836 150.22705078 C-69.75756836 149.56705078 -69.75756836 148.90705078 -69.75756836 148.22705078 C-70.49233398 147.95892578 -71.22709961 147.69080078 -71.98413086 147.41455078 C-82.55497044 142.88844482 -88.91195481 133.71555221 -93.50756836 123.53955078 C-102.89151485 99.55492439 -102.65842589 69.00971039 -92.75756836 45.22705078 C-83.50476461 26.86286168 -68.09921753 13.07697215 -48.51977539 6.47216797 C-46.13043439 5.73904652 -43.73405977 5.06174852 -41.32006836 4.41455078 C-40.59432617 4.21966064 -39.86858398 4.02477051 -39.12084961 3.82397461 C-26.18037365 0.61572068 -13.26234468 -0.06608239 0 0 Z " fill="#013AFB" transform="translate(304.757568359375,107.77294921875)"/>
<path d="M0 0 C21.45 0 42.9 0 65 0 C65 38.61 65 77.22 65 117 C103.94 117 142.88 117 183 117 C183 78.39 183 39.78 183 0 C204.12 0 225.24 0 247 0 C247 99 247 198 247 300 C225.88 300 204.76 300 183 300 C183 261.06 183 222.12 183 182 C144.06 182 105.12 182 65 182 C65 220.94 65 259.88 65 300 C43.55 300 22.1 300 0 300 C0 201 0 102 0 0 Z " fill="#013AFB" transform="translate(1670,108)"/>
<path d="M0 0 C21.05480359 -0.06794232 42.10951725 -0.12311228 63.16440296 -0.15543652 C72.94240581 -0.17084978 82.72033529 -0.19183222 92.49829102 -0.22631836 C101.02916588 -0.25639158 109.55998755 -0.27561516 118.09091395 -0.28226548 C122.60034223 -0.28614765 127.10961845 -0.29515304 131.61899757 -0.31719017 C166.6899055 -0.48175888 198.22905593 1.14829685 225.125 26.75 C243.47819819 45.55847133 247.46030303 70.13862602 247.3066864 95.3629303 C247.18472295 105.06666995 245.91647474 113.77246517 243 123 C242.63777344 124.17175781 242.27554688 125.34351563 241.90234375 126.55078125 C234.64564213 147.48452051 218.54442901 162.7582196 199.00488281 172.31933594 C180.89071943 180.80953865 161.978963 182.12134821 142.27126312 182.16866493 C139.86526811 182.17595271 137.4594631 182.19170118 135.05352783 182.21000671 C128.22255841 182.26194631 121.39171019 182.3104908 114.56054688 182.32592773 C110.35786992 182.33603921 106.15570015 182.36541957 101.95322418 182.40724754 C100.36337374 182.41949257 98.77345162 182.42469077 97.1835556 182.42244911 C87.36079644 182.41199314 79.77886549 182.43835567 72.25 189.625 C67.00950486 196.66391887 65.40448701 204.44818733 65.45410156 213.03955078 C65.43859505 214.4608857 65.43859505 214.4608857 65.42277527 215.91093445 C65.39355746 219.00590494 65.39185255 222.1002155 65.390625 225.1953125 C65.37562917 227.35579662 65.35889909 229.51626934 65.34051514 231.67672729 C65.29698722 237.3352107 65.27687477 242.99353949 65.26177979 248.65216064 C65.23869984 255.45644082 65.18628697 262.26055176 65.13883972 269.06469727 C65.07019206 279.37650882 65.03860788 289.68783527 65 300 C43.55 300 22.1 300 0 300 C-0.12032643 275.6361266 -0.12032643 275.6361266 -0.14648438 265.12304688 C-0.16430752 257.99398974 -0.18522104 250.86504992 -0.22631836 243.73608398 C-0.25929721 237.97831132 -0.27693285 232.22066474 -0.28463173 226.46280479 C-0.290107 224.28355618 -0.30079489 222.10431321 -0.31719017 219.9251194 C-0.52526252 191.07974549 2.35119829 163.46829515 23.21484375 141.59765625 C44.02493321 122.18852653 71.26536771 116.72728958 98.86617661 116.69503975 C101.43202008 116.69131206 103.99749852 116.67442109 106.56326294 116.65428162 C113.84646823 116.5994345 121.12972128 116.56811451 128.41308594 116.54370117 C132.89677559 116.52778038 137.38019413 116.49753611 141.86374283 116.45893669 C143.55966432 116.44735022 145.25563424 116.4413569 146.95159531 116.44125557 C149.32202169 116.4410623 151.69170205 116.42271469 154.06201172 116.40063477 C154.74996323 116.40521194 155.43791473 116.40978912 156.14671326 116.414505 C163.6450203 116.30414006 169.98081945 113.8235175 175.4609375 108.71875 C180.78989681 102.76762793 182.25229207 95.86493106 182 88 C180.96266481 80.60762187 177.82965264 74.72562992 172 70 C164.44049488 64.99838457 156.78578288 65.42280235 148.03710938 65.45410156 C146.42017628 65.44535798 144.80325183 65.43486946 143.18634033 65.42277527 C138.81498336 65.39499066 134.44390978 65.39150891 130.07247734 65.39249516 C125.49735085 65.38935956 120.92235078 65.36372789 116.34729004 65.34051514 C107.6918957 65.30000112 99.03657662 65.27962524 90.38110209 65.26654124 C80.52372112 65.25065561 70.66646793 65.21223339 60.80916119 65.17194796 C40.53945838 65.08961186 20.26983683 65.03845514 0 65 C0 43.55 0 22.1 0 0 Z " fill="#013AFB" transform="translate(489,108)"/>
<path d="M0 0 C1.17203476 -0.00014603 2.34406952 -0.00029205 3.55162048 -0.0004425 C7.38770462 0.00024869 11.2237389 0.00800366 15.05981445 0.01586914 C17.73452334 0.01773614 20.40922954 0.01920797 23.0839386 0.02015686 C29.38053969 0.02325026 35.67712318 0.0314365 41.97371656 0.04150635 C49.854626 0.05383315 57.73553838 0.05926587 65.61645508 0.06469727 C79.65618229 0.07440331 93.69587115 0.09444103 107.7355957 0.11352539 C107.7355957 21.56352539 107.7355957 43.01352539 107.7355957 65.11352539 C99.23551758 65.13930664 90.73543945 65.16508789 81.9777832 65.19165039 C75.88465075 65.22004176 69.79157013 65.25091399 63.69847298 65.28534889 C55.81940799 65.32954892 47.94045626 65.36803069 40.0612793 65.38452148 C33.81965811 65.39760379 27.57827581 65.42473393 21.33678925 65.46813846 C18.03754621 65.49060722 14.73865627 65.50434794 11.43932724 65.50540924 C-6.25043602 65.51681594 -21.25546082 65.64751883 -36.2644043 76.11352539 C-37.5947168 76.97977539 -37.5947168 76.97977539 -38.9519043 77.86352539 C-57.12342898 95.54392779 -59.38344577 123.18945546 -60.2644043 147.11352539 C-60.30694336 148.11770508 -60.34948242 149.12188477 -60.39331055 150.15649414 C-60.91317568 174.17426311 -57.92495688 200.75129587 -41.8894043 219.73852539 C-30.03268017 231.7975827 -14.42613752 235.13602507 1.96554565 235.30140686 C3.00276764 235.30716232 4.03998962 235.31291779 5.10864258 235.31884766 C6.77825546 235.33369705 6.77825546 235.33369705 8.4815979 235.34884644 C12.1391593 235.38028557 15.79673366 235.405149 19.4543457 235.42993164 C21.99882331 235.45051637 24.54329761 235.47151323 27.08776855 235.49290466 C33.08694572 235.54234867 39.08614017 235.58765421 45.08536386 235.63092703 C52.59120459 235.68532309 60.09699198 235.74609852 67.6027832 235.80688477 C80.98034624 235.91519605 94.35795878 236.01391371 107.7355957 236.11352539 C107.7355957 257.23352539 107.7355957 278.35352539 107.7355957 300.11352539 C77.34062399 300.2340164 77.34062399 300.2340164 62.18605518 300.26428699 C54.03251124 300.28082741 45.87906067 300.30173176 37.72558594 300.33984375 C31.26391435 300.37003294 24.80231365 300.38916725 18.34057349 300.39579087 C14.92876528 300.399654 11.5171596 300.4085315 8.10541725 300.43071556 C-32.16867762 300.66319537 -68.25909139 294.10180992 -98.3269043 265.42602539 C-103.76363195 259.84465866 -108.18323738 253.72121762 -112.2644043 247.11352539 C-112.61245117 246.55068848 -112.96049805 245.98785156 -113.3190918 245.40795898 C-139.02457069 202.85137903 -139.39603273 142.1899382 -128.2644043 95.11352539 C-125.36705565 83.58720804 -121.73115996 72.68738174 -116.2644043 62.11352539 C-115.81581055 61.19700195 -115.3672168 60.28047852 -114.9050293 59.33618164 C-102.01414047 34.09755941 -79.37880084 16.64290891 -52.86987305 7.54711914 C-35.69999815 2.05220791 -17.97499934 -0.05969761 0 0 Z " fill="#013AFB" transform="translate(1523.264404296875,107.886474609375)"/>
<path d="M0 0 C66.33 0 132.66 0 201 0 C201 21.45 201 42.9 201 65 C179.22 65 157.44 65 135 65 C135 142.55 135 220.1 135 300 C113.55 300 92.1 300 70 300 C70 222.45 70 144.9 70 65 C46.9 65 23.8 65 0 65 C0 43.55 0 22.1 0 0 Z " fill="#013AFB" transform="translate(871,108)"/>
<path d="M0 0 C7.21841461 -0.05002633 14.4367248 -0.08601135 21.65527344 -0.10986328 C24.1028825 -0.11982336 26.55047998 -0.13339629 28.99804688 -0.15087891 C80.61360702 -0.50990694 80.61360702 -0.50990694 97.875 14.5 C104.47067744 22.25962052 106.31470833 29.41569758 106.2515564 39.33566284 C106.25452654 40.13581885 106.25749667 40.93597485 106.26055682 41.760378 C106.26814824 44.42089294 106.26172287 47.08118392 106.25537109 49.74169922 C106.25812327 51.65766549 106.26180455 53.57363063 106.26634216 55.48959351 C106.27443577 59.60594094 106.27662725 63.72223411 106.27439499 67.83858871 C106.27155517 74.35297814 106.2859388 80.86725971 106.30337524 87.38162231 C106.35033855 105.90267321 106.37434146 124.4237164 106.38085938 142.94482422 C106.38461376 153.18128064 106.40267192 163.41761459 106.43595374 173.65401852 C106.45613183 180.12421816 106.4585557 186.59410118 106.44767356 193.06431937 C106.44505992 197.09648556 106.45910213 201.12846871 106.47775459 205.16058731 C106.48306081 207.02372825 106.48160677 208.88690322 106.47271919 210.75003052 C106.41523123 223.86372617 107.18031125 234.02730439 116.6796875 243.96484375 C126.93046724 252.95584753 140.85361344 255.99774473 154 258 C154 258.33 154 258.66 154 259 C152.36804687 259.23783203 152.36804687 259.23783203 150.703125 259.48046875 C136.95207616 261.60929878 122.50266909 265.08085189 113.1171875 276.23828125 C108.4540936 282.9400708 106.69762567 288.91851025 106.74171448 297.09515381 C106.73803877 297.89360096 106.73436307 298.69204812 106.73057598 299.51469064 C106.72062209 302.18140885 106.72474161 304.84791747 106.72875977 307.51464844 C106.72437114 309.43032044 106.71906849 311.34599054 106.71292114 313.26165771 C106.70142951 317.38349321 106.69596232 321.50527735 106.69503975 325.6271286 C106.69309707 332.14976158 106.67503228 338.67228861 106.65428162 345.19488525 C106.60511751 361.39820446 106.57422844 377.60155246 106.55297852 393.80493164 C106.53644201 406.39423092 106.513586 418.98343936 106.46995777 431.57267785 C106.44821931 438.05118609 106.44012008 444.52952161 106.44235051 451.00806379 C106.44067905 455.04676013 106.42660127 459.08534455 106.40913773 463.12400055 C106.40355725 464.99036339 106.40303537 466.85674963 106.40807533 468.72311401 C106.46751807 493.32348594 106.46751807 493.32348594 97 503 C83.14038336 515.29060343 62.28922476 516.34412032 44.7265625 516.1953125 C43.43680511 516.1924826 42.14704773 516.18965271 40.81820679 516.18673706 C37.44156682 516.17921576 34.06510766 516.15967116 30.6885376 516.1373291 C27.22207076 516.11661786 23.75557379 516.10768215 20.2890625 516.09765625 C13.52596133 516.07641029 6.76300804 516.04132702 0 516 C0 510.06 0 504.12 0 498 C1.57007813 497.95101563 3.14015625 497.90203125 4.7578125 497.8515625 C29.31963594 498.13927988 29.31963594 498.13927988 50.5 487.625 C56.66459302 476.83696221 55.13800185 462.82886733 55.11010742 450.80712891 C55.1098649 449.08130391 55.11014367 447.35547878 55.11090088 445.62965393 C55.11200201 441.92969948 55.11058719 438.2297575 55.10753441 434.52980423 C55.10388316 428.67002051 55.11307862 422.81030062 55.12532043 416.95053101 C55.12835333 415.46287639 55.12835333 415.46287639 55.13144749 413.94516814 C55.13561557 411.91810474 55.13981832 409.89104141 55.14405501 407.86397815 C55.17213549 394.23545224 55.19232193 380.60706744 55.17504883 366.97851562 C55.16346868 357.76596058 55.17314288 348.5536949 55.20710641 339.34119165 C55.22420636 334.47488306 55.23063221 329.60909678 55.210989 324.74278641 C55.1926708 320.16400452 55.20251113 315.586121 55.23324585 311.00741386 C55.2395748 309.33539315 55.23584805 307.66329653 55.22084999 305.9913311 C55.11770045 293.56184689 57.38621541 282.98185836 66.19140625 273.58203125 C75.42346328 265.5064738 87.08662982 260.520136 99 258 C98.29617187 257.86464844 97.59234375 257.72929687 96.8671875 257.58984375 C82.26355476 254.40602303 68.4210814 247.60278015 60 234.8125 C56.7220263 229.28091938 55.74959316 224.0352872 55.73498535 217.64634705 C55.72841345 216.5682326 55.72841345 216.5682326 55.72170877 215.46833807 C55.70943359 213.07119442 55.71119385 210.67427096 55.71289062 208.27709961 C55.70686323 206.55348386 55.69993818 204.82987105 55.69218445 203.10626221 C55.67731167 199.39859595 55.66855015 195.6909834 55.66447449 191.98328972 C55.65774637 186.11092153 55.63597229 180.23866761 55.61193848 174.36634827 C55.56299385 161.89009236 55.53069163 149.41381213 55.5 136.9375 C55.46687485 123.49094937 55.43077915 110.04444354 55.37586927 96.59796149 C55.35263613 90.77095409 55.33880834 84.9440257 55.33237457 79.11697662 C55.3263969 75.4758508 55.31226634 71.8347882 55.29603004 68.19369507 C55.29019975 66.51726168 55.28767221 64.84081268 55.28886986 63.16436958 C55.67779649 45.41307533 55.67779649 45.41307533 50 29 C49.505 27.515 49.505 27.515 49 26 C46.83378132 24.8974827 46.83378132 24.8974827 44 24 C42.81535156 23.50757812 41.63070313 23.01515625 40.41015625 22.5078125 C35.81304011 20.7831736 31.37022149 20.26671449 26.5 19.875 C25.63793945 19.79717285 24.77587891 19.7193457 23.88769531 19.63916016 C15.93396876 18.94097695 7.97155974 18.44286443 0 18 C0 12.06 0 6.12 0 0 Z " fill="#013AFB" transform="translate(1979,0)"/>
<path d="M0 0 C1.15941101 0.00141495 2.31882202 0.0028299 3.5133667 0.00428772 C7.17039714 0.00982849 10.82736346 0.0223695 14.484375 0.03515625 C16.98307202 0.04017892 19.48177002 0.04474047 21.98046875 0.04882812 C28.0651284 0.05977843 34.14974087 0.07700129 40.234375 0.09765625 C40.234375 6.03765625 40.234375 11.97765625 40.234375 18.09765625 C38.12417969 18.20722656 36.01398438 18.31679688 33.83984375 18.4296875 C31.75771861 18.54606942 29.67586546 18.66652537 27.59399414 18.78735352 C26.16584236 18.86809538 24.7374504 18.94471356 23.30883789 19.0168457 C12.13697397 19.58503941 0.53897948 20.26162031 -8.765625 27.09765625 C-16.33721705 37.12489977 -15.05256611 50.65350667 -15.02099609 62.61938477 C-15.02375079 64.36830813 -15.02743359 66.11723024 -15.03196716 67.8661499 C-15.04003732 71.61248532 -15.04225826 75.35876121 -15.04001999 79.10510445 C-15.03717156 85.03585247 -15.05159467 90.96648288 -15.06900024 96.89720154 C-15.11588501 113.75493629 -15.13997025 130.61266186 -15.14648438 147.47045898 C-15.1502399 156.79611865 -15.16830367 166.12164395 -15.20157874 175.44724602 C-15.22173611 181.33623647 -15.22419149 187.22487908 -15.21329856 193.11388981 C-15.21068312 196.78332697 -15.22473514 200.45256333 -15.24337959 204.12194824 C-15.2486808 205.81577254 -15.24724043 207.5096343 -15.23834419 209.20344353 C-15.17656476 222.00370649 -16.72444777 232.39111099 -25.765625 242.09765625 C-34.89662431 250.99279949 -46.28288519 255.94545973 -58.765625 258.09765625 C-57.22455078 258.53464844 -57.22455078 258.53464844 -55.65234375 258.98046875 C-40.0782083 263.53250253 -27.20343705 269.48982183 -18.765625 284.09765625 C-16.34829477 289.3918312 -15.38946596 293.90046109 -15.38035583 299.78120422 C-15.37512014 300.51123427 -15.36988444 301.24126432 -15.36449009 301.99341649 C-15.35062589 304.41676363 -15.35780499 306.83957053 -15.36499023 309.26293945 C-15.35924244 311.00980091 -15.35215751 312.7566584 -15.34384155 314.50350952 C-15.32876524 318.25482678 -15.32295104 322.00600206 -15.32436943 325.75734901 C-15.32640912 331.69656348 -15.30679491 337.6355882 -15.28419495 343.57475281 C-15.24326482 355.11517489 -15.22463123 366.6555819 -15.20802307 378.19606018 C-15.18565415 392.87446093 -15.15199097 407.55281749 -15.10082394 422.23114651 C-15.08097569 428.12729697 -15.07132717 434.02334795 -15.06987178 439.91953051 C-15.0671083 443.59769956 -15.05624931 447.27581428 -15.04336166 450.95396042 C-15.03910643 452.65058955 -15.03820532 454.34723119 -15.04103661 456.0438633 C-15.50819936 474.74982344 -15.50819936 474.74982344 -7.265625 490.78515625 C2.12015477 498.04629433 16.98809982 497.26724515 28.234375 497.66015625 C29.39066406 497.70333984 30.54695312 497.74652344 31.73828125 497.79101562 C34.5701987 497.89633487 37.40227295 497.99742372 40.234375 498.09765625 C40.234375 504.03765625 40.234375 509.97765625 40.234375 516.09765625 C32.78353799 516.14318642 25.33275429 516.17973085 17.88181114 516.20128059 C14.420503 516.21163332 10.95929653 516.22563279 7.49804688 516.24853516 C3.50129325 516.27480956 -0.49535681 516.28419918 -4.4921875 516.29296875 C-6.31962997 516.30845261 -6.31962997 516.30845261 -8.18399048 516.32424927 C-25.52150625 516.32646848 -44.31229679 514.1436757 -57.83203125 502.28515625 C-67.27929945 492.50259878 -66.19128225 479.83837433 -66.13452148 467.12890625 C-66.13699246 465.2126443 -66.14083388 463.29638371 -66.14593506 461.38012695 C-66.15424392 457.26924113 -66.15349032 453.15849399 -66.14575005 449.04760742 C-66.13412484 442.54143923 -66.14636457 436.03544784 -66.16236877 429.52929688 C-66.19848893 413.37273205 -66.20479349 397.21617187 -66.20227051 381.05957031 C-66.20055786 368.49375059 -66.2077149 355.92807617 -66.24224907 343.36229706 C-66.25900812 336.90043959 -66.2572788 330.43893717 -66.24142635 323.9770813 C-66.23561552 319.95148252 -66.24639411 315.9260509 -66.26167297 311.90048218 C-66.26538813 310.04055866 -66.2623233 308.1806067 -66.25180244 306.32070923 C-66.18534861 293.72953206 -66.65059356 283.50452993 -75.8046875 273.90625 C-86.35847975 264.17237388 -99.76938828 260.65537695 -113.765625 259.09765625 C-110.81318526 257.12936309 -108.95779383 256.70787965 -105.52319336 256.21166992 C-94.03383629 254.53819947 -81.46411196 250.30989064 -73.765625 241.09765625 C-68.83985672 233.76196908 -66.45796723 226.88356774 -66.5140686 218.00923157 C-66.51109846 217.21148998 -66.50812833 216.41374839 -66.50506818 215.59183282 C-66.49744965 212.92744043 -66.50391346 210.26326988 -66.51025391 207.59887695 C-66.50750294 205.6848282 -66.5038224 203.77078058 -66.49928284 201.85673523 C-66.49117732 197.7381721 -66.48900079 193.61966324 -66.49123001 189.50109291 C-66.49406616 182.98238833 -66.47969898 176.46379187 -66.46224976 169.94511414 C-66.41525426 151.40947089 -66.39128905 132.87383494 -66.38476562 114.33813477 C-66.38100977 104.09838722 -66.36293737 93.85876201 -66.32967126 83.61906689 C-66.30950005 77.14580141 -66.3070663 70.67285238 -66.31795144 64.19956839 C-66.32056728 60.16189009 -66.30651167 56.12439422 -66.28787041 52.08676338 C-66.28256907 50.22243161 -66.28400978 48.3580658 -66.29290581 46.49374771 C-66.34268357 35.14104117 -65.96522459 25.6440909 -59.640625 15.78515625 C-43.61401067 0.8037559 -20.74397856 -0.09756519 0 0 Z " fill="#013AFB" transform="translate(113.765625,-0.09765625)"/>
<path d="M0 0 C21.45 0 42.9 0 65 0 C65 99 65 198 65 300 C43.55 300 22.1 300 0 300 C0 201 0 102 0 0 Z " fill="#013AFB" transform="translate(769,108)"/>
</svg>
